<svg width="36" height="36" viewBox="0 0 36 36" fill="none" xmlns="http://www.w3.org/2000/svg">
<rect width="35.92" height="35.92" rx="2.99333" fill="#EFF4FF"/>
<path d="M29.4692 31.1025L22.1192 23.7525C21.5359 24.2192 20.865 24.5886 20.1067 24.8609C19.3484 25.1331 18.5414 25.2692 17.6859 25.2692C15.5664 25.2692 13.7727 24.5352 12.3046 23.0671C10.8366 21.5991 10.1025 19.8053 10.1025 17.6859C10.1025 15.5664 10.8366 13.7727 12.3046 12.3046C13.7727 10.8366 15.5664 10.1025 17.6859 10.1025C19.8053 10.1025 21.5991 10.8366 23.0671 12.3046C24.5352 13.7727 25.2692 15.5664 25.2692 17.6859C25.2692 18.5414 25.1331 19.3484 24.8609 20.1067C24.5886 20.865 24.2192 21.5359 23.7525 22.1192L31.1025 29.4692L29.4692 31.1025ZM17.6859 22.9359C19.1442 22.9359 20.3838 22.4255 21.4046 21.4046C22.4255 20.3838 22.9359 19.1442 22.9359 17.6859C22.9359 16.2275 22.4255 14.988 21.4046 13.9671C20.3838 12.9463 19.1442 12.4359 17.6859 12.4359C16.2275 12.4359 14.988 12.9463 13.9671 13.9671C12.9463 14.988 12.4359 16.2275 12.4359 17.6859C12.4359 19.1442 12.9463 20.3838 13.9671 21.4046C14.988 22.4255 16.2275 22.9359 17.6859 22.9359Z" fill="#0051D5"/>
</svg>
