<svg width="40" height="48" viewBox="0 0 40 48" fill="none" xmlns="http://www.w3.org/2000/svg">
<g filter="url(#filter0_d_228_1695)">
<path d="M12 32H28V28H12V32ZM12 24H28V20H12V24ZM8 40C6.9 40 5.95833 39.6083 5.175 38.825C4.39167 38.0417 4 37.1 4 36V4C4 2.9 4.39167 1.95833 5.175 1.175C5.95833 0.391667 6.9 0 8 0H24L36 12V36C36 37.1 35.6083 38.0417 34.825 38.825C34.0417 39.6083 33.1 40 32 40H8ZM22 14V4H8V36H32V14H22ZM8 4V14V4V14V36V4Z" fill="#862E84"/>
</g>
<defs>
<filter id="filter0_d_228_1695" x="0" y="0" width="40" height="48" filterUnits="userSpaceOnUse" color-interpolation-filters="sRGB">
<feFlood flood-opacity="0" result="BackgroundImageFix"/>
<feColorMatrix in="SourceAlpha" type="matrix" values="0 0 0 0 0 0 0 0 0 0 0 0 0 0 0 0 0 0 127 0" result="hardAlpha"/>
<feOffset dy="4"/>
<feGaussianBlur stdDeviation="2"/>
<feComposite in2="hardAlpha" operator="out"/>
<feColorMatrix type="matrix" values="0 0 0 0 0 0 0 0 0 0 0 0 0 0 0 0 0 0 0.25 0"/>
<feBlend mode="normal" in2="BackgroundImageFix" result="effect1_dropShadow_228_1695"/>
<feBlend mode="normal" in="SourceGraphic" in2="effect1_dropShadow_228_1695" result="shape"/>
</filter>
</defs>
</svg>
