<svg width="49" height="25" viewBox="0 0 49 25" fill="none" xmlns="http://www.w3.org/2000/svg">
<path d="M0.5 24.5V21.35C0.5 19.9167 1.23333 18.75 2.7 17.85C4.16667 16.95 6.1 16.5 8.5 16.5C8.93333 16.5 9.35 16.5083 9.75 16.525C10.15 16.5417 10.5333 16.5833 10.9 16.65C10.4333 17.35 10.0833 18.0833 9.85 18.85C9.61667 19.6167 9.5 20.4167 9.5 21.25V24.5H0.5V24.5M12.5 24.5V21.25C12.5 20.1833 12.7917 19.2083 13.375 18.325C13.9583 17.4417 14.7833 16.6667 15.85 16C16.9167 15.3333 18.1917 14.8333 19.675 14.5C21.1583 14.1667 22.7667 14 24.5 14C26.2667 14 27.8917 14.1667 29.375 14.5C30.8583 14.8333 32.1333 15.3333 33.2 16C34.2667 16.6667 35.0833 17.4417 35.65 18.325C36.2167 19.2083 36.5 20.1833 36.5 21.25V24.5H12.5V24.5M39.5 24.5V21.25C39.5 20.3833 39.3917 19.5667 39.175 18.8C38.9583 18.0333 38.6333 17.3167 38.2 16.65C38.5667 16.5833 38.9417 16.5417 39.325 16.525C39.7083 16.5083 40.1 16.5 40.5 16.5C42.9 16.5 44.8333 16.9417 46.3 17.825C47.7667 18.7083 48.5 19.8833 48.5 21.35V24.5H39.5V24.5M16.75 20.5H32.3V20.5C31.9667 19.8333 31.0417 19.25 29.525 18.75C28.0083 18.25 26.3333 18 24.5 18C22.6667 18 20.9917 18.25 19.475 18.75C17.9583 19.25 17.05 19.8333 16.75 20.5V20.5V20.5M8.5 14.5C7.4 14.5 6.45833 14.1083 5.675 13.325C4.89167 12.5417 4.5 11.6 4.5 10.5C4.5 9.36667 4.89167 8.41667 5.675 7.65C6.45833 6.88333 7.4 6.5 8.5 6.5C9.63333 6.5 10.5833 6.88333 11.35 7.65C12.1167 8.41667 12.5 9.36667 12.5 10.5C12.5 11.6 12.1167 12.5417 11.35 13.325C10.5833 14.1083 9.63333 14.5 8.5 14.5V14.5M40.5 14.5C39.4 14.5 38.4583 14.1083 37.675 13.325C36.8917 12.5417 36.5 11.6 36.5 10.5C36.5 9.36667 36.8917 8.41667 37.675 7.65C38.4583 6.88333 39.4 6.5 40.5 6.5C41.6333 6.5 42.5833 6.88333 43.35 7.65C44.1167 8.41667 44.5 9.36667 44.5 10.5C44.5 11.6 44.1167 12.5417 43.35 13.325C42.5833 14.1083 41.6333 14.5 40.5 14.5V14.5M24.5 12.5C22.8333 12.5 21.4167 11.9167 20.25 10.75C19.0833 9.58333 18.5 8.16667 18.5 6.5C18.5 4.8 19.0833 3.375 20.25 2.225C21.4167 1.075 22.8333 0.5 24.5 0.5C26.2 0.5 27.625 1.075 28.775 2.225C29.925 3.375 30.5 4.8 30.5 6.5C30.5 8.16667 29.925 9.58333 28.775 10.75C27.625 11.9167 26.2 12.5 24.5 12.5V12.5M24.5 8.5C25.0667 8.5 25.5417 8.30833 25.925 7.925C26.3083 7.54167 26.5 7.06667 26.5 6.5C26.5 5.93333 26.3083 5.45833 25.925 5.075C25.5417 4.69167 25.0667 4.5 24.5 4.5C23.9333 4.5 23.4583 4.69167 23.075 5.075C22.6917 5.45833 22.5 5.93333 22.5 6.5C22.5 7.06667 22.6917 7.54167 23.075 7.925C23.4583 8.30833 23.9333 8.5 24.5 8.5V8.5M24.55 20.5V20.5V20.5V20.5V20.5V20.5V20.5V20.5V20.5M24.5 6.5V6.5V6.5V6.5V6.5V6.5V6.5V6.5V6.5V6.5" fill="#862E84"/>
<path d="M0.5 24.5V21.35C0.5 19.9167 1.23333 18.75 2.7 17.85C4.16667 16.95 6.1 16.5 8.5 16.5C8.93333 16.5 9.35 16.5083 9.75 16.525C10.15 16.5417 10.5333 16.5833 10.9 16.65C10.4333 17.35 10.0833 18.0833 9.85 18.85C9.61667 19.6167 9.5 20.4167 9.5 21.25V24.5H0.5V24.5M12.5 24.5V21.25C12.5 20.1833 12.7917 19.2083 13.375 18.325C13.9583 17.4417 14.7833 16.6667 15.85 16C16.9167 15.3333 18.1917 14.8333 19.675 14.5C21.1583 14.1667 22.7667 14 24.5 14C26.2667 14 27.8917 14.1667 29.375 14.5C30.8583 14.8333 32.1333 15.3333 33.2 16C34.2667 16.6667 35.0833 17.4417 35.65 18.325C36.2167 19.2083 36.5 20.1833 36.5 21.25V24.5H12.5V24.5M39.5 24.5V21.25C39.5 20.3833 39.3917 19.5667 39.175 18.8C38.9583 18.0333 38.6333 17.3167 38.2 16.65C38.5667 16.5833 38.9417 16.5417 39.325 16.525C39.7083 16.5083 40.1 16.5 40.5 16.5C42.9 16.5 44.8333 16.9417 46.3 17.825C47.7667 18.7083 48.5 19.8833 48.5 21.35V24.5H39.5V24.5M16.75 20.5H32.3V20.5C31.9667 19.8333 31.0417 19.25 29.525 18.75C28.0083 18.25 26.3333 18 24.5 18C22.6667 18 20.9917 18.25 19.475 18.75C17.9583 19.25 17.05 19.8333 16.75 20.5V20.5V20.5M8.5 14.5C7.4 14.5 6.45833 14.1083 5.675 13.325C4.89167 12.5417 4.5 11.6 4.5 10.5C4.5 9.36667 4.89167 8.41667 5.675 7.65C6.45833 6.88333 7.4 6.5 8.5 6.5C9.63333 6.5 10.5833 6.88333 11.35 7.65C12.1167 8.41667 12.5 9.36667 12.5 10.5C12.5 11.6 12.1167 12.5417 11.35 13.325C10.5833 14.1083 9.63333 14.5 8.5 14.5V14.5M40.5 14.5C39.4 14.5 38.4583 14.1083 37.675 13.325C36.8917 12.5417 36.5 11.6 36.5 10.5C36.5 9.36667 36.8917 8.41667 37.675 7.65C38.4583 6.88333 39.4 6.5 40.5 6.5C41.6333 6.5 42.5833 6.88333 43.35 7.65C44.1167 8.41667 44.5 9.36667 44.5 10.5C44.5 11.6 44.1167 12.5417 43.35 13.325C42.5833 14.1083 41.6333 14.5 40.5 14.5V14.5M24.5 12.5C22.8333 12.5 21.4167 11.9167 20.25 10.75C19.0833 9.58333 18.5 8.16667 18.5 6.5C18.5 4.8 19.0833 3.375 20.25 2.225C21.4167 1.075 22.8333 0.5 24.5 0.5C26.2 0.5 27.625 1.075 28.775 2.225C29.925 3.375 30.5 4.8 30.5 6.5C30.5 8.16667 29.925 9.58333 28.775 10.75C27.625 11.9167 26.2 12.5 24.5 12.5V12.5M24.5 8.5C25.0667 8.5 25.5417 8.30833 25.925 7.925C26.3083 7.54167 26.5 7.06667 26.5 6.5C26.5 5.93333 26.3083 5.45833 25.925 5.075C25.5417 4.69167 25.0667 4.5 24.5 4.5C23.9333 4.5 23.4583 4.69167 23.075 5.075C22.6917 5.45833 22.5 5.93333 22.5 6.5C22.5 7.06667 22.6917 7.54167 23.075 7.925C23.4583 8.30833 23.9333 8.5 24.5 8.5V8.5M24.55 20.5V20.5V20.5V20.5V20.5V20.5V20.5V20.5V20.5M24.5 6.5V6.5V6.5V6.5V6.5V6.5V6.5V6.5V6.5V6.5" stroke="black" stroke-linejoin="bevel"/>
</svg>
