<svg width="44" height="38" viewBox="0 0 44 38" fill="none" xmlns="http://www.w3.org/2000/svg">
<path d="M6 26C4.33333 26 2.91667 25.4167 1.75 24.25C0.583333 23.0833 0 21.6667 0 20C0 18.3333 0.583333 16.9167 1.75 15.75C2.91667 14.5833 4.33333 14 6 14V10C6 8.9 6.39167 7.95833 7.175 7.175C7.95833 6.39167 8.9 6 10 6H16C16 4.33333 16.5833 2.91667 17.75 1.75C18.9167 0.583333 20.3333 0 22 0C23.6667 0 25.0833 0.583333 26.25 1.75C27.4167 2.91667 28 4.33333 28 6H34C35.1 6 36.0417 6.39167 36.825 7.175C37.6083 7.95833 38 8.9 38 10V14C39.6667 14 41.0833 14.5833 42.25 15.75C43.4167 16.9167 44 18.3333 44 20C44 21.6667 43.4167 23.0833 42.25 24.25C41.0833 25.4167 39.6667 26 38 26V34C38 35.1 37.6083 36.0417 36.825 36.825C36.0417 37.6083 35.1 38 34 38H10C8.9 38 7.95833 37.6083 7.175 36.825C6.39167 36.0417 6 35.1 6 34V26ZM16 22C16.8333 22 17.5417 21.7083 18.125 21.125C18.7083 20.5417 19 19.8333 19 19C19 18.1667 18.7083 17.4583 18.125 16.875C17.5417 16.2917 16.8333 16 16 16C15.1667 16 14.4583 16.2917 13.875 16.875C13.2917 17.4583 13 18.1667 13 19C13 19.8333 13.2917 20.5417 13.875 21.125C14.4583 21.7083 15.1667 22 16 22ZM28 22C28.8333 22 29.5417 21.7083 30.125 21.125C30.7083 20.5417 31 19.8333 31 19C31 18.1667 30.7083 17.4583 30.125 16.875C29.5417 16.2917 28.8333 16 28 16C27.1667 16 26.4583 16.2917 25.875 16.875C25.2917 17.4583 25 18.1667 25 19C25 19.8333 25.2917 20.5417 25.875 21.125C26.4583 21.7083 27.1667 22 28 22ZM14 30H30V26H14V30ZM10 34H34V10H10V34Z" fill="#862E84"/>
</svg>
