<svg width="36" height="36" viewBox="0 0 36 36" fill="none" xmlns="http://www.w3.org/2000/svg">
<mask id="path-1-inside-1_228_2395" fill="white">
<path d="M0 18C0 8.05888 8.05888 0 18 0C27.9411 0 36 8.05888 36 18C36 27.9411 27.9411 36 18 36C8.05888 36 0 27.9411 0 18Z"/>
</mask>
<path d="M0 18C0 8.05888 8.05888 0 18 0C27.9411 0 36 8.05888 36 18C36 27.9411 27.9411 36 18 36C8.05888 36 0 27.9411 0 18Z" fill="white" fill-opacity="0.05"/>
<path d="M0 18M36 18M36 18M0 18M18 0M36 18M18 36M0 18M18 36V35C8.61116 35 1 27.3888 1 18H0H-1C-1 28.4934 7.50659 37 18 37V36ZM36 18H35C35 27.3888 27.3888 35 18 35V36V37C28.4934 37 37 28.4934 37 18H36ZM18 0V1C27.3888 1 35 8.61116 35 18H36H37C37 7.50659 28.4934 -1 18 -1V0ZM18 0V-1C7.50659 -1 -1 7.50659 -1 18H0H1C1 8.61116 8.61116 1 18 1V0Z" fill="white" fill-opacity="0.1" mask="url(#path-1-inside-1_228_2395)"/>
<g clip-path="url(#clip0_228_2395)">
<g clip-path="url(#clip1_228_2395)">
<g clip-path="url(#clip2_228_2395)">
<path d="M15.6763 19.1602H13.2614C12.8718 19.1602 12.75 19.0252 12.75 18.6872V15.9612C12.75 15.6012 12.896 15.4882 13.2614 15.4882H15.6763V13.5062C15.6479 12.6164 15.8751 11.736 16.3337 10.9602C16.8243 10.1759 17.5934 9.58464 18.5019 9.29322C19.1051 9.09376 19.7398 8.99465 20.3782 9.00022H22.766C23.1072 9.00022 23.2531 9.13522 23.2531 9.45122V12.0192C23.2531 12.3342 23.1072 12.4702 22.766 12.4702C22.1087 12.4702 21.4503 12.4702 20.793 12.4932C20.1357 12.4932 19.7944 12.7862 19.7944 13.4172C19.7703 14.0932 19.7944 14.7462 19.7944 15.4452H22.6231C23.0127 15.4452 23.1586 15.5802 23.1586 15.9452V18.6712C23.1586 19.0312 23.0368 19.1442 22.6231 19.1442H19.7934V26.4882C19.7934 26.8712 19.6716 27.0061 19.2327 27.0061H16.1877C15.8223 27.0061 15.6763 26.8711 15.6763 26.5332V19.1602Z" fill="white"/>
</g>
</g>
</g>
<defs>
<clipPath id="clip0_228_2395">
<rect width="18" height="18" fill="white" transform="translate(9 9)"/>
</clipPath>
<clipPath id="clip1_228_2395">
<rect width="18" height="18" fill="white" transform="translate(9 9)"/>
</clipPath>
<clipPath id="clip2_228_2395">
<rect width="10.5" height="18" fill="white" transform="translate(12.75 9)"/>
</clipPath>
</defs>
</svg>
