<svg width="36" height="36" viewBox="0 0 36 36" fill="none" xmlns="http://www.w3.org/2000/svg">
<mask id="path-1-inside-1_228_2412" fill="white">
<path d="M0 18C0 8.05888 8.05888 0 18 0C27.9411 0 36 8.05888 36 18C36 27.9411 27.9411 36 18 36C8.05888 36 0 27.9411 0 18Z"/>
</mask>
<path d="M0 18C0 8.05888 8.05888 0 18 0C27.9411 0 36 8.05888 36 18C36 27.9411 27.9411 36 18 36C8.05888 36 0 27.9411 0 18Z" fill="white" fill-opacity="0.05"/>
<path d="M0 18M36 18M36 18M0 18M18 0M36 18M18 36M0 18M18 36V35C8.61116 35 1 27.3888 1 18H0H-1C-1 28.4934 7.50659 37 18 37V36ZM36 18H35C35 27.3888 27.3888 35 18 35V36V37C28.4934 37 37 28.4934 37 18H36ZM18 0V1C27.3888 1 35 8.61116 35 18H36H37C37 7.50659 28.4934 -1 18 -1V0ZM18 0V-1C7.50659 -1 -1 7.50659 -1 18H0H1C1 8.61116 8.61116 1 18 1V0Z" fill="white" fill-opacity="0.1" mask="url(#path-1-inside-1_228_2412)"/>
<g clip-path="url(#clip0_228_2412)">
<g clip-path="url(#clip1_228_2412)">
<g clip-path="url(#clip2_228_2412)">
<mask id="mask0_228_2412" style="mask-type:luminance" maskUnits="userSpaceOnUse" x="9" y="9" width="18" height="18">
<path d="M27 9H9V27H27V9Z" fill="white"/>
</mask>
<g mask="url(#mask0_228_2412)">
<path d="M22.5 9H13.5C11.0252 9 9 11.0243 9 13.5V22.5C9 24.9748 11.0252 27 13.5 27H22.5C24.9748 27 27 24.9748 27 22.5V13.5C27 11.0243 24.9748 9 22.5 9ZM18 21.7498C15.9286 21.7498 14.2499 20.0704 14.2499 18C14.2499 15.9286 15.9286 14.2499 18 14.2499C20.0704 14.2499 21.7501 15.9286 21.7501 18C21.7501 20.0704 20.0704 21.7498 18 21.7498ZM22.8751 14.2499C22.2532 14.2499 21.7501 13.7461 21.7501 13.1249C21.7501 12.5037 22.2532 11.9999 22.8751 11.9999C23.497 11.9999 24 12.5037 24 13.1249C24 13.7461 23.497 14.2499 22.8751 14.2499Z" fill="white"/>
</g>
</g>
</g>
</g>
<defs>
<clipPath id="clip0_228_2412">
<rect width="18" height="18" fill="white" transform="translate(9 9)"/>
</clipPath>
<clipPath id="clip1_228_2412">
<rect width="18" height="18" fill="white" transform="translate(9 9)"/>
</clipPath>
<clipPath id="clip2_228_2412">
<rect width="18" height="18" fill="white" transform="translate(9 9)"/>
</clipPath>
</defs>
</svg>
