<svg width="36" height="36" viewBox="0 0 36 36" fill="none" xmlns="http://www.w3.org/2000/svg">
<mask id="path-1-inside-1_228_2402" fill="white">
<path d="M0 18C0 8.05888 8.05888 0 18 0C27.9411 0 36 8.05888 36 18C36 27.9411 27.9411 36 18 36C8.05888 36 0 27.9411 0 18Z"/>
</mask>
<path d="M0 18C0 8.05888 8.05888 0 18 0C27.9411 0 36 8.05888 36 18C36 27.9411 27.9411 36 18 36C8.05888 36 0 27.9411 0 18Z" fill="white" fill-opacity="0.05"/>
<path d="M0 18M36 18M36 18M0 18M18 0M36 18M18 36M0 18M18 36V35C8.61116 35 1 27.3888 1 18H0H-1C-1 28.4934 7.50659 37 18 37V36ZM36 18H35C35 27.3888 27.3888 35 18 35V36V37C28.4934 37 37 28.4934 37 18H36ZM18 0V1C27.3888 1 35 8.61116 35 18H36H37C37 7.50659 28.4934 -1 18 -1V0ZM18 0V-1C7.50659 -1 -1 7.50659 -1 18H0H1C1 8.61116 8.61116 1 18 1V0Z" fill="white" fill-opacity="0.1" mask="url(#path-1-inside-1_228_2402)"/>
<g clip-path="url(#clip0_228_2402)">
<g clip-path="url(#clip1_228_2402)">
<g clip-path="url(#clip2_228_2402)">
<mask id="mask0_228_2402" style="mask-type:luminance" maskUnits="userSpaceOnUse" x="9" y="9" width="18" height="18">
<path d="M27 9H9V27H27V9Z" fill="white"/>
</mask>
<g mask="url(#mask0_228_2402)">
<path d="M9.04389 9.14648L15.9935 18.9129L9 26.8535H10.574L16.6967 19.9014L21.6438 26.8535H27L19.6594 16.5377L26.1688 9.14648H24.5949L18.9561 15.5492L14.4001 9.14648H9.04389ZM11.3585 10.365H13.8191L24.685 25.6347H22.2244L11.3585 10.365Z" fill="white"/>
</g>
</g>
</g>
</g>
<defs>
<clipPath id="clip0_228_2402">
<rect width="18" height="18" fill="white" transform="translate(9 9)"/>
</clipPath>
<clipPath id="clip1_228_2402">
<rect width="18" height="18" fill="white" transform="translate(9 9)"/>
</clipPath>
<clipPath id="clip2_228_2402">
<rect width="18" height="18" fill="white" transform="translate(9 9)"/>
</clipPath>
</defs>
</svg>
